# xmcd
# 
# Track frame offsets:
#     150
#     10177
#     23195
#     35427
#     46785
#     63702
#     77405
#     92327
#     103470
#     123030
#     135550
#     148825
#     159390
#     172210
# 
# Disc length: 2577
# 
# Revision: 2
# Processed by: cddbd v1.5.2PL0 Copyright (c) Steve Scherf et al.
# Submitted via: fre:ac v1.0.31
# 
DISCID=b30a0f0e
DTITLE=Various Artist - Ases Do Choro I
DYEAR=2000
DGENRE=Latin
TTITLE0=Pixinguinha e Benedito Lacerda - Um a Zero
TTITLE1=Jacob do bandolim - Doce de Coco
TTITLE2=Custódio Mesquita e sua Orquestra - Brejeiro
TTITLE3=Garoto e Carolina Cardoso de Menezes - Tico-Tico no Fubá
TTITLE4=Dominguinhos - Saxofone, porque choras?
TTITLE5=Bonfiglio de Oliveira - Flamengo
TTITLE6=Euperce Miranda - Naquele tempo
TTITLE7=Luiz Gonzaga - Apanhei-te Cavaquinho
TTITLE8=Jacob do Bandolim - Vibrações
TTITLE9=Orlando Silva - Carinhoso
TTITLE10=Luiz Americano - Pensando em você
TTITLE11=Déo Rian - Odeon
TTITLE12=Pixinguinha e Benedito Lacerda - Atraente
TTITLE13=Jacob do Bandolim - Ingénuo
EXTD=YEAR: 2000
EXTT0=
EXTT1=
EXTT2=
EXTT3=
EXTT4=
EXTT5=
EXTT6=
EXTT7=
EXTT8=
EXTT9=
EXTT10=
EXTT11=
EXTT12=
EXTT13=
PLAYORDER=
